<svg width="233" height="59" viewBox="0 0 233 59" fill="none" xmlns="http://www.w3.org/2000/svg">
<path fill-rule="evenodd" clip-rule="evenodd" d="M16.7901 0.931885H215.472C224.706 0.931885 232.261 8.48731 232.261 17.7217V37.3099C232.261 46.5443 224.706 54.0997 215.472 54.0997H16.7901C7.55541 54.0997 0 46.5443 0 37.3099V17.7217C0 8.48731 7.55541 0.931885 16.7901 0.931885Z" fill="#FF0000"/>
<path d="M64.6006 18.2377V15.8257H86.7766V18.2377H82.6366V38.9377H79.8286V28.8577H72.2686V33.7537H69.8206L68.9206 31.7377C68.2726 30.2017 67.9486 29.1217 67.9486 28.4977C67.9486 28.0177 68.0806 27.6097 68.3446 27.2737C68.6326 26.9377 69.0046 26.7097 69.4606 26.5897V18.2377H64.6006ZM79.8286 18.2377H72.2686V26.4817H79.8286V18.2377ZM92.2941 15.8257H96.3261V18.2377H92.1861V38.9377H89.3781V18.2377H85.2021V15.8257H88.3701C87.1701 14.9137 86.1261 14.2537 85.2381 13.8457C84.3261 13.4137 83.3781 13.1977 82.3941 13.1977C81.6501 13.1977 80.9541 13.3057 80.3061 13.5217V11.0017C80.8821 10.8097 81.5301 10.7137 82.2501 10.7137C83.2581 10.7137 84.1581 10.9177 84.9501 11.3257C85.7421 11.7097 86.6661 12.3577 87.7221 13.2697L89.9541 15.2497L86.6421 11.0017C85.5861 9.65774 84.1701 8.98574 82.3941 8.98574C81.6741 8.98574 80.9781 9.06974 80.3061 9.23774V6.78974C80.7381 6.64574 81.4701 6.57374 82.5021 6.57374C85.0701 6.57374 87.0861 7.71374 88.5501 9.99374L92.2941 15.8257ZM94.7295 15.8257H119.713V18.2377H115.537V38.9377H112.729V25.1137H105.493C107.221 26.1457 108.085 27.8377 108.085 30.1897C108.085 32.1337 107.425 33.7057 106.105 34.9057C104.809 36.0817 103.081 36.6697 100.921 36.6697C99.3375 36.6697 97.8975 36.4057 96.6015 35.8777V33.2857C97.8975 33.9577 99.2415 34.2937 100.633 34.2937C102.025 34.2937 103.141 33.9217 103.981 33.1777C104.845 32.4097 105.277 31.3537 105.277 30.0097C105.277 28.4017 104.713 27.1897 103.585 26.3737C102.481 25.5337 100.945 25.1137 98.9775 25.1137V22.7017H112.729V18.2377H94.7295V15.8257ZM115.48 45.6337V47.9377C115.096 48.0577 114.592 48.1177 113.968 48.1177C112.432 48.1177 111.16 47.6857 110.152 46.8217C109.144 45.9817 108.64 44.7937 108.64 43.2577C108.64 41.9377 109.144 40.8097 110.152 39.8737C111.136 38.9617 112.408 38.5057 113.968 38.5057C115.504 38.5057 116.848 38.8537 118 39.5497C119.152 40.2457 120.028 41.1577 120.628 42.2857C121.252 43.4137 121.708 44.5537 121.996 45.7057C122.284 46.8817 122.428 48.0457 122.428 49.1977H119.8C119.8 46.9657 119.308 45.0097 118.324 43.3297C117.34 41.6737 115.948 40.8457 114.148 40.8457C113.332 40.8457 112.672 41.0737 112.168 41.5297C111.664 41.9857 111.412 42.5737 111.412 43.2937C111.412 44.1097 111.7 44.7337 112.276 45.1657C112.828 45.5977 113.512 45.8137 114.328 45.8137C114.832 45.8137 115.216 45.7537 115.48 45.6337ZM118.144 15.8257H139.528V18.2377H135.208V24.2497H128.872C127.24 24.2497 125.956 24.6697 125.02 25.5097C124.084 26.3497 123.616 27.5257 123.616 29.0377C123.616 30.5977 124.036 31.8217 124.876 32.7097C125.716 33.5977 126.844 34.0417 128.26 34.0417C129.676 34.0417 130.804 33.6457 131.644 32.8537C132.508 32.0617 132.964 31.0417 133.012 29.7937H135.712V39.2977H132.904V34.5097C131.92 35.7577 130.3 36.3817 128.044 36.3817C125.812 36.3817 124.012 35.6857 122.644 34.2937C121.276 32.9017 120.592 31.1857 120.592 29.1457C120.592 27.0097 121.3 25.2697 122.716 23.9257C124.132 22.5577 126.112 21.8737 128.656 21.8737H132.4V18.2377H118.144V15.8257ZM163.358 23.8897H154.718C153.374 23.8897 152.702 24.4297 152.702 25.5097C152.702 26.1337 152.87 26.6977 153.206 27.2017C153.542 27.6817 153.938 28.0297 154.394 28.2457C155.402 27.8857 156.566 27.7057 157.886 27.7057C159.854 27.7057 161.366 28.1857 162.422 29.1457C163.478 30.0817 164.006 31.2097 164.006 32.5297C164.006 33.3217 163.874 33.9937 163.61 34.5457H160.838C161.174 34.0897 161.342 33.4657 161.342 32.6737C161.342 31.9057 161.042 31.2817 160.442 30.8017C159.866 30.2977 159.002 30.0457 157.85 30.0457C156.266 30.0457 155.03 30.3937 154.142 31.0897C153.254 31.7857 152.81 32.6257 152.81 33.6097C152.81 34.8097 153.326 35.7937 154.358 36.5617C155.39 37.3057 156.962 37.6777 159.074 37.6777C160.538 37.6777 162.038 37.4617 163.574 37.0297V39.4417C161.918 39.8497 160.346 40.0537 158.858 40.0537C156.026 40.0537 153.842 39.4057 152.306 38.1097C150.77 36.8137 150.002 35.3017 150.002 33.5737C150.002 31.8697 150.758 30.4537 152.27 29.3257C150.662 28.2697 149.858 26.8777 149.858 25.1497C149.858 23.9977 150.266 23.1097 151.082 22.4857C151.898 21.8617 152.954 21.5497 154.25 21.5497H160.586V18.2377H146.726V15.8257H167.426V18.2377H163.358V23.8897ZM159.8 9.99374L163.724 16.0777H159.944C158.6 15.0697 157.472 14.3377 156.56 13.8817C155.648 13.4257 154.676 13.1977 153.644 13.1977C152.9 13.1977 152.204 13.3057 151.556 13.5217V11.0017C152.132 10.8097 152.78 10.7137 153.5 10.7137C154.508 10.7137 155.408 10.9177 156.2 11.3257C156.992 11.7097 157.916 12.3577 158.972 13.2697L161.204 15.2497L157.892 11.0017C156.836 9.65774 155.42 8.98574 153.644 8.98574C152.924 8.98574 152.228 9.06974 151.556 9.23774V6.78974C151.988 6.64574 152.72 6.57374 153.752 6.57374C156.32 6.57374 158.336 7.71374 159.8 9.99374Z" fill="white"/>
</svg>
