<svg width="233" height="58" viewBox="0 0 233 58" fill="none" xmlns="http://www.w3.org/2000/svg">
<path fill-rule="evenodd" clip-rule="evenodd" d="M16.7901 0.267334H215.472C224.706 0.267334 232.261 7.82299 232.261 17.0574V36.6453C232.261 45.88 224.706 53.4354 215.472 53.4354H16.7901C7.55541 53.4354 0 45.88 0 36.6453V17.0574C0 7.82299 7.55541 0.267334 16.7901 0.267334Z" fill="#FF0000"/>
<path d="M72.6364 14.888V17.3H67.9564C68.7964 18.212 69.2164 19.328 69.2164 20.648C69.2164 23.216 67.9684 24.848 65.4724 25.544C66.7924 25.664 67.9444 26.204 68.9284 27.164C69.9364 28.124 70.4404 29.384 70.4404 30.944C70.4404 32.864 69.7444 34.412 68.3524 35.588C66.9604 36.74 64.9924 37.316 62.4484 37.316C60.7924 37.316 59.1364 37.004 57.4804 36.38V33.788C59.0164 34.532 60.6004 34.904 62.2324 34.904C63.8644 34.904 65.1604 34.568 66.1204 33.896C67.1044 33.2 67.5964 32.156 67.5964 30.764C67.5964 29.516 67.0924 28.544 66.0844 27.848C65.0764 27.152 63.7324 26.804 62.0524 26.804H60.3964V24.356H62.0524C64.9324 24.356 66.3724 23.12 66.3724 20.648C66.3724 19.328 65.8684 18.212 64.8604 17.3H55.6084V14.888H72.6364ZM108.519 14.888V17.3H104.343V38H101.535V31.232C100.959 32.144 100.107 32.9 98.9788 33.5C97.8748 34.1 96.5308 34.412 94.9468 34.436C93.6268 34.436 92.4388 34.184 91.3828 33.68C90.3508 33.176 89.5588 32.456 89.0068 31.52C87.1828 33.464 84.8788 34.436 82.0948 34.436C80.0548 34.436 78.3748 33.92 77.0548 32.888C75.7588 31.856 75.1108 30.428 75.1108 28.604C75.1108 26.516 76.0348 25.004 77.8828 24.068H72.8068V21.656H85.1188V24.068C82.5028 24.068 80.6428 24.488 79.5388 25.328C78.4588 26.144 77.9188 27.176 77.9188 28.424C77.9188 29.528 78.3268 30.416 79.1428 31.088C79.9828 31.76 81.0388 32.096 82.3108 32.096C83.5108 32.096 84.6388 31.808 85.6948 31.232C86.7508 30.656 87.6028 29.936 88.2508 29.072V28.568C88.2508 26.504 89.1748 25.004 91.0228 24.068H86.9908V21.656H98.2228V24.068C95.6068 24.068 93.7468 24.488 92.6428 25.328C91.5628 26.144 91.0228 27.176 91.0228 28.424C91.0228 29.6 91.4068 30.512 92.1748 31.16C92.9668 31.784 93.9988 32.096 95.2708 32.096C97.2148 32.096 98.7388 31.508 99.8428 30.332C100.971 29.132 101.535 27.764 101.535 26.228V17.3H71.0068V14.888H108.519ZM115.726 17.3V14.888H137.902V17.3H133.762V38H130.954V27.92H123.394V32.816H120.946L120.046 30.8C119.398 29.264 119.074 28.184 119.074 27.56C119.074 27.08 119.206 26.672 119.47 26.336C119.758 26 120.13 25.772 120.586 25.652V17.3H115.726ZM130.954 17.3H123.394V25.544H130.954V17.3ZM136.327 17.3V14.888H147.487V17.3H143.311V38H140.503V17.3H136.327ZM167.814 14.888V17.3H163.638V38H160.794V29.972L150.858 36.164L149.346 34.076L159.966 27.452C159.39 26.348 158.586 25.46 157.554 24.788C156.546 24.092 155.37 23.732 154.026 23.708C152.226 23.708 150.438 24.188 148.662 25.148V22.52C150.078 21.68 151.878 21.26 154.062 21.26C156.894 21.26 159.138 22.328 160.794 24.464V17.3H145.89V14.888H167.814ZM166.245 17.3V14.888H177.405V17.3H173.229V38H170.421V17.3H166.245Z" fill="white"/>
</svg>
