<svg width="122" height="32" viewBox="0 0 122 32" fill="none" xmlns="http://www.w3.org/2000/svg">
<path fill-rule="evenodd" clip-rule="evenodd" d="M5.83884 0H115.96C119.172 0 121.798 2.62679 121.798 5.8383V21.6399C121.798 24.8519 119.172 27.4787 115.96 27.4787H5.83884C2.62759 27.4787 0 24.8519 0 21.6399V5.8383C0 2.62679 2.62759 0 5.83884 0Z" fill="#FF0000"/>
<path d="M37.1313 8.16V9.5H34.5313C34.998 10.0067 35.2313 10.6267 35.2313 11.36C35.2313 12.7867 34.538 13.6933 33.1513 14.08C33.8847 14.1467 34.5247 14.4467 35.0713 14.98C35.6313 15.5133 35.9113 16.2133 35.9113 17.08C35.9113 18.1467 35.5247 19.0067 34.7513 19.66C33.978 20.3 32.8847 20.62 31.4713 20.62C30.5513 20.62 29.6313 20.4467 28.7113 20.1V18.66C29.5647 19.0733 30.4447 19.28 31.3513 19.28C32.258 19.28 32.978 19.0933 33.5113 18.72C34.058 18.3333 34.3313 17.7533 34.3313 16.98C34.3313 16.2867 34.0513 15.7467 33.4913 15.36C32.9313 14.9733 32.1847 14.78 31.2513 14.78H30.3313V13.42H31.2513C32.8513 13.42 33.6513 12.7333 33.6513 11.36C33.6513 10.6267 33.3713 10.0067 32.8113 9.5H27.6713V8.16H37.1313ZM57.066 8.16V9.5H54.746V21H53.186V17.24C52.866 17.7467 52.3927 18.1667 51.766 18.5C51.1527 18.8333 50.406 19.0067 49.526 19.02C48.7927 19.02 48.1327 18.88 47.546 18.6C46.9727 18.32 46.5327 17.92 46.226 17.4C45.2127 18.48 43.9327 19.02 42.386 19.02C41.2527 19.02 40.3193 18.7333 39.586 18.16C38.866 17.5867 38.506 16.7933 38.506 15.78C38.506 14.62 39.0193 13.78 40.046 13.26H37.226V11.92H44.066V13.26C42.6127 13.26 41.5793 13.4933 40.966 13.96C40.366 14.4133 40.066 14.9867 40.066 15.68C40.066 16.2933 40.2927 16.7867 40.746 17.16C41.2127 17.5333 41.7993 17.72 42.506 17.72C43.1727 17.72 43.7993 17.56 44.386 17.24C44.9727 16.92 45.446 16.52 45.806 16.04V15.76C45.806 14.6133 46.3193 13.78 47.346 13.26H45.106V11.92H51.346V13.26C49.8927 13.26 48.8593 13.4933 48.246 13.96C47.646 14.4133 47.346 14.9867 47.346 15.68C47.346 16.3333 47.5593 16.84 47.986 17.2C48.426 17.5467 48.9993 17.72 49.706 17.72C50.786 17.72 51.6327 17.3933 52.246 16.74C52.8727 16.0733 53.186 15.3133 53.186 14.46V9.5H36.226V8.16H57.066ZM61.0698 9.5V8.16H73.3898V9.5H71.0898V21H69.5298V15.4H65.3298V18.12H63.9698L63.4698 17C63.1098 16.1467 62.9298 15.5467 62.9298 15.2C62.9298 14.9333 63.0031 14.7067 63.1498 14.52C63.3098 14.3333 63.5164 14.2067 63.7698 14.14V9.5H61.0698ZM69.5298 9.5H65.3298V14.08H69.5298V9.5ZM72.5151 9.5V8.16H78.7151V9.5H76.3951V21H74.8351V9.5H72.5151ZM90.0076 8.16V9.5H87.6876V21H86.1076V16.54L80.5876 19.98L79.7476 18.82L85.6476 15.14C85.3276 14.5267 84.8809 14.0333 84.3076 13.66C83.7476 13.2733 83.0942 13.0733 82.3476 13.06C81.3476 13.06 80.3542 13.3267 79.3676 13.86V12.4C80.1542 11.9333 81.1542 11.7 82.3676 11.7C83.9409 11.7 85.1876 12.2933 86.1076 13.48V9.5H77.8276V8.16H90.0076ZM89.1362 9.5V8.16H95.3362V9.5H93.0162V21H91.4562V9.5H89.1362Z" fill="white"/>
</svg>
