<svg width="122" height="32" viewBox="0 0 122 32" fill="none" xmlns="http://www.w3.org/2000/svg">
<path fill-rule="evenodd" clip-rule="evenodd" d="M5.83884 0H115.96C119.172 0 121.798 2.62679 121.798 5.8383V21.6399C121.798 24.8519 119.172 27.4787 115.96 27.4787H5.83884C2.62759 27.4787 0 24.8519 0 21.6399V5.8383C0 2.62679 2.62759 0 5.83884 0Z" fill="#05A310"/>
<path d="M55.1784 9.5H47.8184V12.36C48.4317 11.72 49.2117 11.4 50.1584 11.4C51.2517 11.4 52.1384 11.7333 52.8184 12.4C53.4984 13.0667 53.8384 13.94 53.8384 15.02C53.8384 16.18 53.4584 17.1067 52.6984 17.8C51.9384 18.4933 50.9917 18.84 49.8584 18.84C49.7117 18.84 49.5584 18.8267 49.3984 18.8V17.46C49.5317 17.4867 49.665 17.5 49.7984 17.5C50.505 17.5 51.0917 17.28 51.5584 16.84C52.025 16.4 52.2584 15.7933 52.2584 15.02C52.2584 14.34 52.045 13.7867 51.6184 13.36C51.205 12.92 50.6584 12.7 49.9784 12.7C49.3917 12.7 48.885 12.9067 48.4584 13.32C48.0317 13.72 47.8184 14.2267 47.8184 14.84V21H46.2384V18.12C45.6517 18.7333 44.8784 19.04 43.9184 19.04C42.825 19.04 41.9384 18.7133 41.2584 18.06C40.5784 17.3933 40.2384 16.52 40.2384 15.44C40.2384 14.28 40.6184 13.3533 41.3784 12.66C42.1384 11.9533 43.0784 11.6 44.1984 11.6C44.4117 11.6 44.565 11.62 44.6584 11.66V12.98C44.5917 12.9667 44.465 12.96 44.2784 12.96C43.5584 12.96 42.965 13.18 42.4984 13.62C42.0317 14.06 41.7984 14.66 41.7984 15.42C41.7984 16.1 42.0117 16.66 42.4384 17.1C42.865 17.54 43.4184 17.76 44.0984 17.76C44.685 17.76 45.185 17.5533 45.5984 17.14C46.025 16.7267 46.2384 16.2133 46.2384 15.6V9.5H38.8784V8.16H55.1784V9.5ZM54.308 9.5V8.16H66.628V9.5H64.328V21H62.768V15.4H58.568V18.12H57.208L56.708 17C56.348 16.1467 56.168 15.5467 56.168 15.2C56.168 14.9333 56.2414 14.7067 56.388 14.52C56.548 14.3333 56.7547 14.2067 57.008 14.14V9.5H54.308ZM62.768 9.5H58.568V14.08H62.768V9.5ZM79.8762 12.64H75.0762C74.3295 12.64 73.9562 12.94 73.9562 13.54C73.9562 13.8867 74.0495 14.2 74.2362 14.48C74.4228 14.7467 74.6428 14.94 74.8962 15.06C75.4562 14.86 76.1028 14.76 76.8362 14.76C77.9295 14.76 78.7695 15.0267 79.3562 15.56C79.9428 16.08 80.2362 16.7067 80.2362 17.44C80.2362 17.88 80.1628 18.2533 80.0162 18.56H78.4762C78.6628 18.3067 78.7562 17.96 78.7562 17.52C78.7562 17.0933 78.5895 16.7467 78.2562 16.48C77.9362 16.2 77.4562 16.06 76.8162 16.06C75.9362 16.06 75.2495 16.2533 74.7562 16.64C74.2628 17.0267 74.0162 17.4933 74.0162 18.04C74.0162 18.7067 74.3028 19.2533 74.8762 19.68C75.4495 20.0933 76.3228 20.3 77.4962 20.3C78.3095 20.3 79.1428 20.18 79.9962 19.94V21.28C79.0762 21.5067 78.2028 21.62 77.3762 21.62C75.8028 21.62 74.5895 21.26 73.7362 20.54C72.8828 19.82 72.4562 18.98 72.4562 18.02C72.4562 17.0733 72.8762 16.2867 73.7162 15.66C72.8228 15.0733 72.3762 14.3 72.3762 13.34C72.3762 12.7 72.6028 12.2067 73.0562 11.86C73.5095 11.5133 74.0962 11.34 74.8162 11.34H78.3362V9.5H70.6362V8.16H82.1362V9.5H79.8762V12.64ZM77.8998 4.92L80.0798 8.3H77.9798C77.2331 7.74 76.6064 7.33333 76.0998 7.08C75.5931 6.82667 75.0531 6.7 74.4798 6.7C74.0664 6.7 73.6798 6.76 73.3198 6.88V5.48C73.6398 5.37333 73.9998 5.32 74.3998 5.32C74.9598 5.32 75.4598 5.43333 75.8998 5.66C76.3398 5.87333 76.8531 6.23333 77.4398 6.74L78.6798 7.84L76.8398 5.48C76.2531 4.73333 75.4664 4.36 74.4798 4.36C74.0798 4.36 73.6931 4.40667 73.3198 4.5V3.14C73.5598 3.06 73.9664 3.02 74.5398 3.02C75.9664 3.02 77.0864 3.65333 77.8998 4.92Z" fill="white"/>
</svg>
