<svg width="233" height="58" viewBox="0 0 233 58" fill="none" xmlns="http://www.w3.org/2000/svg">
<path fill-rule="evenodd" clip-rule="evenodd" d="M16.7901 0.267334H215.472C224.706 0.267334 232.261 7.82299 232.261 17.0574V36.6453C232.261 45.88 224.706 53.4354 215.472 53.4354H16.7901C7.55541 53.4354 0 45.88 0 36.6453V17.0574C0 7.82299 7.55541 0.267334 16.7901 0.267334Z" fill="#05A310"/>
<path d="M106.921 17.3H93.673V22.448C94.777 21.296 96.181 20.72 97.885 20.72C99.853 20.72 101.449 21.32 102.673 22.52C103.897 23.72 104.509 25.292 104.509 27.236C104.509 29.324 103.825 30.992 102.457 32.24C101.089 33.488 99.385 34.112 97.345 34.112C97.081 34.112 96.805 34.088 96.517 34.04V31.628C96.757 31.676 96.997 31.7 97.237 31.7C98.509 31.7 99.565 31.304 100.405 30.512C101.245 29.72 101.665 28.628 101.665 27.236C101.665 26.012 101.281 25.016 100.513 24.248C99.769 23.456 98.785 23.06 97.561 23.06C96.505 23.06 95.593 23.432 94.825 24.176C94.057 24.896 93.673 25.808 93.673 26.912V38H90.829V32.816C89.773 33.92 88.381 34.472 86.653 34.472C84.685 34.472 83.089 33.884 81.865 32.708C80.641 31.508 80.029 29.936 80.029 27.992C80.029 25.904 80.713 24.236 82.081 22.988C83.449 21.716 85.141 21.08 87.157 21.08C87.541 21.08 87.817 21.116 87.985 21.188V23.564C87.865 23.54 87.637 23.528 87.301 23.528C86.005 23.528 84.937 23.924 84.097 24.716C83.257 25.508 82.837 26.588 82.837 27.956C82.837 29.18 83.221 30.188 83.989 30.98C84.757 31.772 85.753 32.168 86.977 32.168C88.033 32.168 88.933 31.796 89.677 31.052C90.445 30.308 90.829 29.384 90.829 28.28V17.3H77.581V14.888H106.921V17.3ZM105.354 17.3V14.888H127.53V17.3H123.39V38H120.582V27.92H113.022V32.816H110.574L109.674 30.8C109.026 29.264 108.702 28.184 108.702 27.56C108.702 27.08 108.834 26.672 109.098 26.336C109.386 26 109.758 25.772 110.214 25.652V17.3H105.354ZM120.582 17.3H113.022V25.544H120.582V17.3ZM151.377 22.952H142.737C141.393 22.952 140.721 23.492 140.721 24.572C140.721 25.196 140.889 25.76 141.225 26.264C141.561 26.744 141.957 27.092 142.413 27.308C143.421 26.948 144.585 26.768 145.905 26.768C147.873 26.768 149.385 27.248 150.441 28.208C151.497 29.144 152.025 30.272 152.025 31.592C152.025 32.384 151.893 33.056 151.629 33.608H148.857C149.193 33.152 149.361 32.528 149.361 31.736C149.361 30.968 149.061 30.344 148.461 29.864C147.885 29.36 147.021 29.108 145.869 29.108C144.285 29.108 143.049 29.456 142.161 30.152C141.273 30.848 140.829 31.688 140.829 32.672C140.829 33.872 141.345 34.856 142.377 35.624C143.409 36.368 144.981 36.74 147.093 36.74C148.557 36.74 150.057 36.524 151.593 36.092V38.504C149.937 38.912 148.365 39.116 146.877 39.116C144.045 39.116 141.861 38.468 140.325 37.172C138.789 35.876 138.021 34.364 138.021 32.636C138.021 30.932 138.777 29.516 140.289 28.388C138.681 27.332 137.877 25.94 137.877 24.212C137.877 23.06 138.285 22.172 139.101 21.548C139.917 20.924 140.973 20.612 142.269 20.612H148.605V17.3H134.745V14.888H155.445V17.3H151.377V22.952ZM147.82 9.056L151.744 15.14H147.964C146.62 14.132 145.492 13.4 144.58 12.944C143.668 12.488 142.696 12.26 141.664 12.26C140.92 12.26 140.224 12.368 139.576 12.584V10.064C140.152 9.872 140.8 9.776 141.52 9.776C142.528 9.776 143.428 9.98 144.22 10.388C145.012 10.772 145.936 11.42 146.992 12.332L149.224 14.312L145.912 10.064C144.856 8.72 143.44 8.048 141.664 8.048C140.944 8.048 140.248 8.132 139.576 8.3V5.852C140.008 5.708 140.74 5.636 141.772 5.636C144.34 5.636 146.356 6.776 147.82 9.056Z" fill="white"/>
</svg>
