<svg width="122" height="32" viewBox="0 0 122 32" fill="none" xmlns="http://www.w3.org/2000/svg">
<path fill-rule="evenodd" clip-rule="evenodd" d="M5.83884 0H115.96C119.172 0 121.798 2.62679 121.798 5.8383V21.6399C121.798 24.8519 119.172 27.4787 115.96 27.4787H5.83884C2.62759 27.4787 0 24.8519 0 21.6399V5.8383C0 2.62679 2.62759 0 5.83884 0Z" fill="#F4B400"/>
<path d="M38.8998 9.5V8.16H51.2198V9.5H48.9198V21H47.3598V15.4H43.1598V18.12H41.7998L41.2998 17C40.9398 16.1467 40.7598 15.5467 40.7598 15.2C40.7598 14.9333 40.8332 14.7067 40.9798 14.52C41.1398 14.3333 41.3465 14.2067 41.5998 14.14V9.5H38.8998ZM47.3598 9.5H43.1598V14.08H47.3598V9.5ZM67.7652 14.32V9.5H64.0252C64.3585 10.0067 64.5252 10.6267 64.5252 11.36C64.5252 12.9333 63.5385 14.0267 61.5652 14.64C61.7252 15.3733 62.0852 15.98 62.6452 16.46C63.2185 16.9267 63.8985 17.16 64.6852 17.16C65.6052 17.16 66.3452 16.9067 66.9052 16.4C67.4785 15.88 67.7652 15.1867 67.7652 14.32ZM59.3652 8.16H71.6452V9.5H69.3252V21H67.7652V17.12C67.0985 18.04 66.0185 18.5 64.5252 18.5C63.3252 18.5 62.3052 18.12 61.4652 17.36C60.0518 18.9333 58.3118 19.72 56.2452 19.72C54.9652 19.72 53.9452 19.42 53.1852 18.82C52.4252 18.2067 52.0452 17.44 52.0452 16.52C52.0452 15.7733 52.2785 15.18 52.7452 14.74C53.2118 14.2867 53.8252 14.0133 54.5852 13.92C53.8385 13.84 53.2452 13.6 52.8052 13.2C52.3652 12.8 52.1452 12.24 52.1452 11.52C52.1452 10.6 52.5585 9.92667 53.3852 9.5H50.3452V8.16H56.5452V9.5H56.5252C55.6452 9.5 54.9585 9.68667 54.4652 10.06C53.9718 10.4333 53.7252 10.9133 53.7252 11.5C53.7252 12.1 53.9785 12.5467 54.4852 12.84C54.9918 13.12 55.6452 13.26 56.4452 13.26H57.4452V14.6H56.2652C55.4518 14.6 54.8118 14.7733 54.3452 15.12C53.8785 15.4533 53.6452 15.92 53.6452 16.52C53.6452 17.0667 53.8852 17.5133 54.3652 17.86C54.8452 18.2067 55.4985 18.38 56.3252 18.38C57.9918 18.38 59.4185 17.6867 60.6052 16.3C60.1518 15.5667 59.8585 14.6867 59.7252 13.66C60.7918 13.5 61.5985 13.2067 62.1452 12.78C62.6918 12.3533 62.9652 11.8533 62.9652 11.28C62.9652 10.6 62.7652 10.0067 62.3652 9.5H59.3652V8.16ZM70.7748 9.5V8.16H83.0948V9.5H80.7948V21H79.2348V15.4H75.0348V18.12H73.6748L73.1748 17C72.8148 16.1467 72.6348 15.5467 72.6348 15.2C72.6348 14.9333 72.7082 14.7067 72.8548 14.52C73.0148 14.3333 73.2215 14.2067 73.4748 14.14V9.5H70.7748ZM79.2348 9.5H75.0348V14.08H79.2348V9.5Z" fill="white"/>
</svg>
