<svg width="233" height="58" viewBox="0 0 233 58" fill="none" xmlns="http://www.w3.org/2000/svg">
<path fill-rule="evenodd" clip-rule="evenodd" d="M16.7901 0.0996094H215.472C224.706 0.0996094 232.261 7.65496 232.261 16.8894V36.4776C232.261 45.712 224.706 53.2673 215.472 53.2673H16.7901C7.55541 53.2673 0 45.712 0 36.4776V16.8894C0 7.65496 7.55541 0.0996094 16.7901 0.0996094Z" fill="#FEAC00"/>
<path d="M76.2197 17.3V14.888H98.3957V17.3H94.2557V38H91.4477V27.92H83.8877V32.816H81.4397L80.5397 30.8C79.8917 29.264 79.5677 28.184 79.5677 27.56C79.5677 27.08 79.6997 26.672 79.9637 26.336C80.2517 26 80.6237 25.772 81.0797 25.652V17.3H76.2197ZM91.4477 17.3H83.8877V25.544H91.4477V17.3ZM128.177 25.976V17.3H121.445C122.045 18.212 122.345 19.328 122.345 20.648C122.345 23.48 120.569 25.448 117.017 26.552C117.305 27.872 117.953 28.964 118.961 29.828C119.993 30.668 121.217 31.088 122.633 31.088C124.289 31.088 125.621 30.632 126.629 29.72C127.661 28.784 128.177 27.536 128.177 25.976ZM113.057 14.888H135.161V17.3H130.985V38H128.177V31.016C126.977 32.672 125.033 33.5 122.345 33.5C120.185 33.5 118.349 32.816 116.837 31.448C114.293 34.28 111.161 35.696 107.441 35.696C105.137 35.696 103.301 35.156 101.933 34.076C100.565 32.972 99.8813 31.592 99.8813 29.936C99.8813 28.592 100.301 27.524 101.141 26.732C101.981 25.916 103.085 25.424 104.453 25.256C103.109 25.112 102.041 24.68 101.249 23.96C100.457 23.24 100.061 22.232 100.061 20.936C100.061 19.28 100.805 18.068 102.293 17.3H96.8213V14.888H107.981V17.3H107.945C106.361 17.3 105.125 17.636 104.237 18.308C103.349 18.98 102.905 19.844 102.905 20.9C102.905 21.98 103.361 22.784 104.273 23.312C105.185 23.816 106.361 24.068 107.801 24.068H109.601V26.48H107.477C106.013 26.48 104.861 26.792 104.021 27.416C103.181 28.016 102.761 28.856 102.761 29.936C102.761 30.92 103.193 31.724 104.057 32.348C104.921 32.972 106.097 33.284 107.585 33.284C110.585 33.284 113.153 32.036 115.289 29.54C114.473 28.22 113.945 26.636 113.705 24.788C115.625 24.5 117.077 23.972 118.061 23.204C119.045 22.436 119.537 21.536 119.537 20.504C119.537 19.28 119.177 18.212 118.457 17.3H113.057V14.888ZM133.595 17.3V14.888H155.771V17.3H151.631V38H148.823V27.92H141.263V32.816H138.815L137.915 30.8C137.267 29.264 136.943 28.184 136.943 27.56C136.943 27.08 137.075 26.672 137.339 26.336C137.627 26 137.999 25.772 138.455 25.652V17.3H133.595ZM148.823 17.3H141.263V25.544H148.823V17.3Z" fill="white"/>
</svg>
