<svg width="233" height="58" viewBox="0 0 233 58" fill="none" xmlns="http://www.w3.org/2000/svg">
<path fill-rule="evenodd" clip-rule="evenodd" d="M16.7901 0H215.472C224.706 0 232.261 7.55543 232.261 16.7898V36.378C232.261 45.6124 224.706 53.1678 215.472 53.1678H16.7901C7.55541 53.1678 0 45.6124 0 36.378V16.7898C0 7.55543 7.55541 0 16.7901 0Z" fill="#05A310"/>
<path d="M51.5127 17.3059V14.8939H73.6887V17.3059H69.5487V38.0059H66.7407V27.9259H59.1807V32.8219H56.7327L55.8327 30.8059C55.1847 29.2699 54.8607 28.1899 54.8607 27.5659C54.8607 27.0859 54.9927 26.6779 55.2567 26.3419C55.5447 26.0059 55.9167 25.7779 56.3727 25.6579V17.3059H51.5127ZM66.7407 17.3059H59.1807V25.5499H66.7407V17.3059ZM79.2063 14.8939H83.2383V17.3059H79.0983V38.0059H76.2903V17.3059H72.1142V14.8939H75.2822C74.0823 13.9819 73.0382 13.3219 72.1502 12.9139C71.2382 12.4819 70.2902 12.2659 69.3062 12.2659C68.5622 12.2659 67.8662 12.3739 67.2182 12.5899V10.0699C67.7942 9.87786 68.4422 9.78186 69.1622 9.78186C70.1702 9.78186 71.0702 9.98586 71.8622 10.3939C72.6542 10.7779 73.5783 11.4259 74.6343 12.3379L76.8663 14.3179L73.5543 10.0699C72.4983 8.72586 71.0822 8.05386 69.3062 8.05386C68.5862 8.05386 67.8902 8.13786 67.2182 8.30586V5.85786C67.6502 5.71386 68.3822 5.64186 69.4142 5.64186C71.9822 5.64186 73.9983 6.78186 75.4623 9.06186L79.2063 14.8939ZM81.6416 14.8939H106.626V17.3059H102.45V38.0059H99.6416V24.1819H92.4056C94.1336 25.2139 94.9976 26.9059 94.9976 29.2579C94.9976 31.2019 94.3376 32.7739 93.0176 33.9739C91.7216 35.1499 89.9936 35.7379 87.8336 35.7379C86.2496 35.7379 84.8096 35.4739 83.5136 34.9459V32.3539C84.8096 33.0259 86.1536 33.3619 87.5456 33.3619C88.9376 33.3619 90.0536 32.9899 90.8936 32.2459C91.7576 31.4779 92.1896 30.4219 92.1896 29.0779C92.1896 27.4699 91.6256 26.2579 90.4976 25.4419C89.3936 24.6019 87.8576 24.1819 85.8896 24.1819V21.7699H99.6416V17.3059H81.6416V14.8939ZM102.392 44.7019V47.0059C102.008 47.1259 101.504 47.1859 100.88 47.1859C99.3437 47.1859 98.0717 46.7539 97.0637 45.8899C96.0557 45.0499 95.5517 43.8619 95.5517 42.3259C95.5517 41.0059 96.0557 39.8779 97.0637 38.9419C98.0477 38.0299 99.3197 37.5739 100.88 37.5739C102.416 37.5739 103.76 37.9219 104.912 38.6179C106.064 39.3139 106.94 40.2259 107.54 41.3539C108.164 42.4819 108.62 43.6219 108.908 44.7739C109.196 45.9499 109.34 47.1139 109.34 48.2659H106.712C106.712 46.0339 106.22 44.0779 105.236 42.3979C104.252 40.7419 102.86 39.9139 101.06 39.9139C100.244 39.9139 99.5837 40.1419 99.0797 40.5979C98.5757 41.0539 98.3237 41.6419 98.3237 42.3619C98.3237 43.1779 98.6117 43.8019 99.1877 44.2339C99.7397 44.6659 100.424 44.8819 101.24 44.8819C101.744 44.8819 102.128 44.8219 102.392 44.7019ZM105.056 14.8939H126.44V17.3059H122.12V23.3179H115.784C114.152 23.3179 112.868 23.7379 111.932 24.5779C110.996 25.4179 110.528 26.5939 110.528 28.1059C110.528 29.6659 110.948 30.8899 111.788 31.7779C112.628 32.6659 113.756 33.1099 115.172 33.1099C116.588 33.1099 117.716 32.7139 118.556 31.9219C119.42 31.1299 119.876 30.1099 119.924 28.8619H122.624V38.3659H119.816V33.5779C118.832 34.8259 117.212 35.4499 114.956 35.4499C112.724 35.4499 110.924 34.7539 109.556 33.3619C108.188 31.9699 107.504 30.2539 107.504 28.2139C107.504 26.0779 108.212 24.3379 109.628 22.9939C111.044 21.6259 113.024 20.9419 115.568 20.9419H119.312V17.3059H105.056V14.8939ZM133.638 14.8939H152.862V17.3059H148.722V38.0059H145.878V26.1619H139.506C139.074 26.1619 138.774 26.2699 138.606 26.4859C138.438 26.7019 138.354 27.0619 138.354 27.5659C138.354 28.4059 138.51 29.2939 138.822 30.2299H136.446C135.774 28.8859 135.438 27.6379 135.438 26.4859C135.438 24.6859 136.482 23.7859 138.57 23.7859H145.878V17.3059H133.638V14.8939ZM167.918 22.9579H159.278C157.934 22.9579 157.262 23.4979 157.262 24.5779C157.262 25.2019 157.43 25.7659 157.766 26.2699C158.102 26.7499 158.498 27.0979 158.954 27.3139C159.962 26.9539 161.126 26.7739 162.446 26.7739C164.414 26.7739 165.926 27.2539 166.982 28.2139C168.038 29.1499 168.566 30.2779 168.566 31.5979C168.566 32.3899 168.434 33.0619 168.17 33.6139H165.398C165.734 33.1579 165.902 32.5339 165.902 31.7419C165.902 30.9739 165.602 30.3499 165.002 29.8699C164.426 29.3659 163.562 29.1139 162.41 29.1139C160.826 29.1139 159.59 29.4619 158.702 30.1579C157.814 30.8539 157.37 31.6939 157.37 32.6779C157.37 33.8779 157.886 34.8619 158.918 35.6299C159.95 36.3739 161.522 36.7459 163.634 36.7459C165.098 36.7459 166.598 36.5299 168.134 36.0979V38.5099C166.478 38.9179 164.906 39.1219 163.418 39.1219C160.586 39.1219 158.402 38.4739 156.866 37.1779C155.33 35.8819 154.562 34.3699 154.562 32.6419C154.562 30.9379 155.318 29.5219 156.83 28.3939C155.222 27.3379 154.418 25.9459 154.418 24.2179C154.418 23.0659 154.826 22.1779 155.642 21.5539C156.458 20.9299 157.514 20.6179 158.81 20.6179H165.146V17.3059H151.286V14.8939H171.986V17.3059H167.918V22.9579ZM177.324 11.7979V14.8939H181.5V17.3059H177.36V38.0059H174.552V17.3059H170.376V14.8939H174.48V11.8699C174.48 10.6939 174.156 9.79386 173.508 9.16986C172.884 8.54586 172.056 8.23386 171.024 8.23386C169.992 8.23386 169.176 8.54586 168.576 9.16986C167.976 9.76986 167.676 10.6699 167.676 11.8699V12.5179H164.868V11.7979C164.868 9.78186 165.456 8.26986 166.632 7.26186C167.784 6.25386 169.248 5.74986 171.024 5.74986C172.824 5.74986 174.324 6.25386 175.524 7.26186C176.724 8.26986 177.324 9.78186 177.324 11.7979ZM179.88 8.12586C180.264 7.74186 180.732 7.54986 181.284 7.54986C181.836 7.54986 182.304 7.74186 182.688 8.12586C183.072 8.50986 183.264 8.97786 183.264 9.52986C183.264 10.0819 183.072 10.5379 182.688 10.8979C182.304 11.2579 181.836 11.4379 181.284 11.4379C180.732 11.4379 180.264 11.2579 179.88 10.8979C179.52 10.5379 179.34 10.0819 179.34 9.52986C179.34 8.97786 179.52 8.50986 179.88 8.12586Z" fill="white"/>
</svg>
